<svg viewBox="0 0 42 56" fill="none" xmlns="http://www.w3.org/2000/svg"><path d="M5.463 19.32a6.29 6.29 0 0 1 6.29-6.291H30.12a6.29 6.29 0 0 1 6.29 6.29v28.055H5.463V19.319z" fill="#FFB100"/><path fill-rule="evenodd" clip-rule="evenodd" d="M.808 40.33a.503.503 0 0 0-.503.503A6.794 6.794 0 0 0 7.1 47.626h27.803a6.793 6.793 0 0 0 6.793-6.793.503.503 0 0 0-.503-.504H.808z" fill="#FFB100"/><path d="M7.853 20.452a4.026 4.026 0 0 1 4.026-4.026h18.116a4.026 4.026 0 0 1 4.026 4.026v23.4H7.853v-23.4z" fill="#FFC6B7"/><path d="M9.237 26.868a2.893 2.893 0 1 1-5.787 0 2.893 2.893 0 0 1 5.787 0zM38.046 26.868a2.893 2.893 0 1 1-5.787 0 2.893 2.893 0 0 1 5.787 0z" fill="#FFC6B7"/><path d="M5.463 19.508a2.453 2.453 0 1 1 4.906 0v4.278a2.453 2.453 0 0 1-4.906 0v-4.278zM31.63 19.445a2.39 2.39 0 1 1 4.781 0v4.404a2.39 2.39 0 0 1-4.78 0v-4.404zM26.724 12.4a6.165 6.165 0 1 1-12.329 0 6.165 6.165 0 0 1 12.329 0z" fill="#FFB100"/><path d="M14.134 7.802l6.088 6.712c.326.36.224.917-.202 1.1-2.046.88-4.532.304-6.14-1.47-1.608-1.773-1.938-4.302-.86-6.25.223-.405.788-.452 1.114-.092z" fill="#FFB100"/><path d="M22.447 29.877c0 .77-.676 1.52-1.51 1.52s-1.51-.75-1.51-1.52 1.447-2.758 1.51-2.758c.063 0 1.51 1.988 1.51 2.758z" fill="#EE9583"/><path d="M21.817 24.227a3.397 3.397 0 0 1 6.794 0v1.887a3.397 3.397 0 0 1-6.794 0v-1.887zM13.262 24.227a3.397 3.397 0 1 1 6.794 0v1.887a3.397 3.397 0 0 1-6.794 0v-1.887z" fill="#fff"/><path d="M16.155 24.415a1.573 1.573 0 1 1 3.145 0v1.761a1.573 1.573 0 1 1-3.145 0v-1.76z" fill="#3D3D3D"/><path d="M17.415 23.471a1.132 1.132 0 1 1-2.265 0 1.132 1.132 0 0 1 2.265 0z" fill="#fff"/><path fill-rule="evenodd" clip-rule="evenodd" d="M22.698 24.603a1.132 1.132 0 0 0 .985-1.692 1.573 1.573 0 0 1 2.035 1.504v1.76a1.573 1.573 0 0 1-3.145 0v-1.579c.04.005.083.007.125.007z" fill="#3D3D3D"/><path d="M7.853 43.852h26.168v5.284H7.853v-5.284z" fill="#FF4B4B"/><path d="M3.324 40.329c1.801 0 2.153-1.41 2.138-2.139h.723v3.115l-2.861-.015v-.961zM38.14 40.329c-1.802 0-2.154-1.41-2.14-2.139h-.722v3.115l2.861-.015v-.961z" fill="#FFB100"/><path d="M19.565 44.337a.63.63 0 0 1 .613-.485h1.644a.63.63 0 0 1 .613.485l1.089 4.655a.629.629 0 0 1-.613.773h-3.823a.63.63 0 0 1-.612-.773l1.09-4.655z" fill="#EBE3E3"/><path d="M14.269 7.997c.88.88 1.51.44 2.013 0l.378.227-1.538 1.487L13.766 8.4c.035-.036.214-.114.503-.402zM28.108 13.03c-1.188 0-1.384-1.007-1.447-1.51h-.476l.036 2.138 1.887.031v-.66z" fill="#FFB100"/><path d="M18.295 29.447c-1.824-1.321-4.277-2.076-5.913-2.328v4.215h5.913v-1.887z" fill="#FFC6B7"/><path fill-rule="evenodd" clip-rule="evenodd" d="M14.41 29.912a2.453 2.453 0 0 1 3.237 1.247c.072.163.292.474.646.72.331.23.657.323.956.301a2.453 2.453 0 0 1 .352 4.894c-3.214.231-5.6-2.036-6.439-3.924a2.453 2.453 0 0 1 1.247-3.238z" fill="#A41414"/><path fill-rule="evenodd" clip-rule="evenodd" d="M17.133 30.413a2.642 2.642 0 0 1-4.182 1.725 2.453 2.453 0 0 1 4.182-1.725z" fill="#fff"/><path fill-rule="evenodd" clip-rule="evenodd" d="M20.141 32.28a2.642 2.642 0 0 1-4.488-1.89v-.677a2.452 2.452 0 0 1 1.994 1.446c.072.163.291.474.646.72.33.23.657.323.956.3.31-.021.611.015.892.1z" fill="#fff"/><path fill-rule="evenodd" clip-rule="evenodd" d="M21.643 35.676a2.452 2.452 0 0 1-2.042 1.398c-1.51.108-2.838-.335-3.909-1.032a4.329 4.329 0 0 1 3.17-1.374c1.058 0 2.028.379 2.781 1.008z" fill="#D22121"/><path d="M4.079 16.803a.88.88 0 0 1 .88-.88h31.326a.88.88 0 0 1 .88.88v1.636a.88.88 0 0 1-.88.88H4.96a.88.88 0 0 1-.881-.88v-1.636z" fill="#FF4B4B"/></svg>