<svg viewBox="0 0 42 56" fill="none" xmlns="http://www.w3.org/2000/svg"><path d="M27.342 13.388c0 5.636-4.57 10.205-10.206 10.205-5.636 0-10.205-4.57-10.205-10.205 0-5.636 4.57-10.205 10.205-10.205 5.637 0 10.206 4.569 10.206 10.205z" fill="#3D3D3D"/><path d="M40.462 21.936a8.15 8.15 0 1 1-16.302 0 8.15 8.15 0 0 1 16.302 0z" fill="#3D3D3D"/><path d="M32.51 13.785c-3.181 0-4.772-1.193-5.964-4.374l-.663 1.59v6.893h6.627v-4.109zM17.136 21.737a7.952 7.952 0 1 1-15.905 0 7.952 7.952 0 0 1 15.905 0z" fill="#3D3D3D"/><path d="M37.337 27.876c-.21-.802-.478-1.58-.799-2.33a2.798 2.798 0 1 1 1.282 5.132c.042.487.063.976.063 1.465v12.21H29.49l-8.394 6.397-8.394-6.398H4.308v-12.21c0-.49.02-.981.063-1.47a2.797 2.797 0 1 1 1.266-5.087c-.365.859-.66 1.755-.88 2.68a4.105 4.105 0 0 0 5-4.008v-4.07a3.691 3.691 0 0 0-.019-.408 16.727 16.727 0 0 1 11.358-4.424 16.73 16.73 0 0 1 11.482 4.54v3.926a4.107 4.107 0 0 0 4.758 4.055h.001z" fill="#DA8E74"/><path d="M25.828 43.85a1 1 0 0 0-.793.39l-3.292 4.28a1 1 0 0 1-1.585 0l-3.293-4.28a1 1 0 0 0-.792-.39H4.308v5.7a2.85 2.85 0 0 0 2.85 2.85h27.876a2.85 2.85 0 0 0 2.85-2.85v-5.7H25.828z" fill="#FFAADE"/><path d="M13.537 25.088v1.145a3.427 3.427 0 0 0 6.854 0v-1.145h-6.854zm8.213 0v1.145a3.426 3.426 0 1 0 6.853 0v-1.145H21.75z" fill="#fff"/><path d="M16.372 25.088v1.14a1.538 1.538 0 1 0 3.076 0v-1.14h-3.076zm6.538 0v1.14a1.538 1.538 0 1 0 3.076 0v-1.14H22.91z" fill="#3D3D3D"/><path fill-rule="evenodd" clip-rule="evenodd" d="M18.313 22.431c-.916-.602-2.048-.725-3.715.091a1.758 1.758 0 0 1-1.546-3.156c2.48-1.215 4.983-1.325 7.193.129a1.757 1.757 0 1 1-1.932 2.936z" fill="#3D3D3D"/><path fill-rule="evenodd" clip-rule="evenodd" d="M24.29 22.431c.917-.602 2.05-.725 3.716.091a1.758 1.758 0 0 0 1.546-3.156c-2.48-1.215-4.983-1.325-7.193.129a1.757 1.757 0 0 0 1.931 2.936z" fill="#3D3D3D"/><path d="M11.568 38.298a4.4 4.4 0 0 1 1.61-6.01l5.028-2.903a4.4 4.4 0 1 1 4.4 7.62l-5.028 2.904a4.4 4.4 0 0 1-6.01-1.61z" fill="#3D3D3D"/><path d="M30.616 38.298a4.4 4.4 0 0 0-1.61-6.01l-5.028-2.903a4.4 4.4 0 1 0-4.4 7.62l5.028 2.904a4.4 4.4 0 0 0 6.01-1.61z" fill="#3D3D3D"/><path d="M23.24 29.3a2.19 2.19 0 1 1-4.38 0 2.19 2.19 0 0 1 4.38 0z" fill="#DA8E74"/></svg>