<svg width="28" height="28" viewBox="0 0 28 28" fill="none" xmlns="http://www.w3.org/2000/svg">
<path d="M12.72 5C10.555 5 9.01195 5.656 7.90295 6.76C6.82195 7.838 6.22595 9.274 5.79695 10.692L5.09895 13.002H2.75195C2.55304 13.002 2.36228 13.081 2.22162 13.2217C2.08097 13.3623 2.00195 13.5531 2.00195 13.752C2.00195 15.095 2.76495 16.235 3.87395 16.852L3.28595 18.284C3.16323 18.5827 3.11587 18.9069 3.14806 19.2282C3.18026 19.5495 3.29101 19.8579 3.47055 20.1263C3.65009 20.3947 3.8929 20.6147 4.17758 20.7671C4.46226 20.9195 4.78006 20.9995 5.10295 21H7.29695C8.05895 21 8.75195 20.559 9.07595 19.87L9.78195 18.366C11.752 18.639 13.751 18.642 15.722 18.376L16.423 19.869C16.5819 20.2067 16.8335 20.4922 17.1484 20.6925C17.4634 20.8927 17.8287 20.9994 18.202 21H20.374C20.6971 21.0002 21.0153 20.9207 21.3004 20.7685C21.5855 20.6163 21.8287 20.3962 22.0083 20.1276C22.188 19.859 22.2987 19.5503 22.3306 19.2287C22.3624 18.9071 22.3145 18.5826 22.191 18.284L21.663 17H24C25.012 17 26 16.217 26 15.114V14C26 12.295 24.52 11.003 22.818 11.003H19.868L19.775 10.693C19.342 9.261 18.711 7.827 17.596 6.753C16.457 5.654 14.886 5 12.72 5ZM21.23 15.5L20.323 12.502H22.818C23.803 12.502 24.5 13.23 24.5 13.999V15.113C24.5 15.249 24.33 15.499 24 15.499L21.23 15.5ZM17.255 18.113C18.2416 17.9069 19.2129 17.6333 20.162 17.294L20.804 18.854C20.8331 18.9249 20.8444 19.0018 20.8369 19.0781C20.8293 19.1543 20.8032 19.2275 20.7607 19.2913C20.7183 19.3551 20.6608 19.4075 20.5933 19.4439C20.5259 19.4803 20.4506 19.4995 20.374 19.5H18.202C18.1137 19.4994 18.0274 19.4739 17.9529 19.4265C17.8785 19.3791 17.8189 19.3117 17.781 19.232L17.255 18.113ZM5.52995 17.336C6.42529 17.65 7.33195 17.904 8.24995 18.098L7.71795 19.232C7.6801 19.3115 7.62065 19.3788 7.54639 19.4262C7.47212 19.4736 7.38604 19.4992 7.29795 19.5H5.10195C5.02546 19.4995 4.95025 19.4802 4.88293 19.4439C4.81561 19.4075 4.75822 19.3553 4.71579 19.2916C4.67335 19.228 4.64717 19.1549 4.63953 19.0788C4.63189 19.0026 4.64302 18.9258 4.67195 18.855L5.30495 17.315C5.37895 17.3243 5.45362 17.3313 5.52895 17.336M4.64495 14.501L4.37395 15.398C4.05659 15.1703 3.8076 14.8601 3.65395 14.501H4.64495Z" fill="white"/>
</svg>
