<?xml version="1.0" standalone="no"?>
<!DOCTYPE svg PUBLIC "-//W3C//DTD SVG 20010904//EN"
 "http://www.w3.org/TR/2001/REC-SVG-20010904/DTD/svg10.dtd">
<svg version="1.0" xmlns="http://www.w3.org/2000/svg"
 width="100.000000pt" height="100.000000pt" viewBox="0 0 100.000000 100.000000"
 preserveAspectRatio="xMidYMid meet">

<g transform="translate(0.000000,100.000000) scale(0.100000,-0.100000)"
fill="#000000" stroke="none">
<path d="M792 807 c-30 -17 -49 -47 -77 -118 -19 -48 -22 -66 -14 -87 17 -43
2 -89 -42 -132 -81 -78 -319 -173 -468 -186 -55 -5 -73 -2 -105 15 -37 19 -42
20 -64 5 -13 -8 -22 -23 -20 -32 3 -14 13 -16 66 -14 34 2 62 0 62 -5 0 -4 -9
-21 -20 -38 -39 -59 -25 -75 65 -75 48 0 56 3 83 34 l30 34 78 -5 c44 -3 103
-1 131 5 50 9 53 8 70 -17 9 -14 24 -31 32 -38 24 -18 126 -16 145 3 19 19 20
9 -4 77 -36 102 -18 196 52 281 21 25 27 27 45 17 53 -28 120 -6 148 49 61
118 -83 288 -193 227z m143 -137 c0 -18 -6 -26 -23 -28 -13 -2 -25 3 -28 12
-10 26 4 48 28 44 17 -2 23 -10 23 -28z"/>
<path d="M317 729 c-142 -34 -238 -147 -224 -267 2 -23 1 -45 -4 -48 -20 -12
-9 -63 16 -80 70 -46 400 55 520 159 33 28 39 40 39 72 0 27 -6 42 -19 49 -10
6 -42 32 -71 58 -73 65 -151 82 -257 57z"/>
</g>
</svg>
