<?xml version="1.0" standalone="no"?>
<!DOCTYPE svg PUBLIC "-//W3C//DTD SVG 20010904//EN"
 "http://www.w3.org/TR/2001/REC-SVG-20010904/DTD/svg10.dtd">
<svg version="1.0" xmlns="http://www.w3.org/2000/svg"
 width="64.000000pt" height="64.000000pt" viewBox="0 0 64.000000 64.000000"
 preserveAspectRatio="xMidYMid meet">

<g transform="translate(0.000000,64.000000) scale(0.100000,-0.100000)"
fill="#000000" stroke="none">
<path d="M210 485 c-38 -39 -62 -55 -80 -55 -47 0 -70 -37 -70 -111 0 -78 17
-109 61 -109 23 0 44 -13 88 -55 64 -61 99 -70 125 -33 13 18 16 55 16 198 0
143 -3 180 -16 198 -27 38 -63 29 -124 -33z"/>
<path d="M465 510 c-4 -6 5 -39 20 -72 35 -77 36 -153 5 -226 -25 -57 -21 -82
10 -82 16 0 28 14 48 58 39 84 38 185 -3 267 -30 59 -63 82 -80 55z"/>
<path d="M394 426 c-4 -9 -1 -36 5 -61 8 -32 8 -57 -1 -95 -12 -54 -4 -76 24
-65 19 7 38 69 38 121 0 66 -50 141 -66 100z"/>
</g>
</svg>
